<?xml version="1.0"?>
<svg xmlns="http://www.w3.org/2000/svg" id="_x33_0" enable-background="new 0 0 64 64" height="512px" viewBox="0 0 64 64" width="512px" class=""><g><path d="m57 61v-8c1.103 0 2-.897 2-2v-2c0-1.103-.897-2-2-2 0-1.812-1.196-3.357-2.905-3.838-.34-.49-.766-.916-1.257-1.257-.48-1.709-2.025-2.905-3.838-2.905-.148 0-.293.014-.437.03-2.138-4.743-5.46-8.817-9.563-11.876v-13.154c0-1.654-1.346-3-3-3h-3.61c.394-.898.61-1.865.61-2.859 0-3.938-3.203-7.141-7.141-7.141h-3.623c-1.617 0-3.085.826-3.923 2.181-1.992.768-3.313 2.68-3.313 4.832 0 .799.189 1.601.547 2.317l.335.67h-3.882c-1.654 0-3 1.346-3 3v16.401c-1.282 2.389-2 5.108-2 7.968v.631c0 1.666.684 3.175 1.784 4.263-1.049.468-1.784 1.516-1.784 2.737v6c0 .771.301 1.468.78 2-.479.532-.78 1.229-.78 2v4c0 .352.072.686.184 1h-6.184v2h62v-2zm-2 0h-2v-8h2zm-14-8h2v8h-2zm-26 1c0-1.654 1.346-3 3-3h2c1.654 0 3 1.346 3 3v7h-8zm25.28-9.927c-.339-.401-.776-.709-1.28-.889v-4.062c1.032 1.285 1.95 2.656 2.743 4.1-.553.182-1.051.471-1.463.851zm-3.28-1.073h-2v-7.954c.695.578 1.363 1.189 2 1.831zm-4 18h-8v-7c0-1.654 1.346-3 3-3h2c1.654 0 3 1.346 3 3zm2-16h3c.552 0 1 .449 1 1v1c-1.103 0-2 .897-2 2v2c0 1.103.897 2 2 2h-4zm10 8h2v8h-2zm4 0h2v8h-2zm8.001-2h-18.001v-2h18zm-6.036-8.315.075.477.421.238c.478.269.871.663 1.139 1.138l.236.421.478.076c.977.155 1.686.982 1.686 1.965h-14c0-.983.709-1.81 1.687-1.965l.477-.076.237-.42c.535-.95 1.531-1.539 2.557-1.539l.918.054.246-.707c.28-.805 1.035-1.347 1.878-1.347.983 0 1.81.708 1.965 1.685zm-13.965-28.685v11.778c-2.528-1.589-5.293-2.82-8.223-3.61l-.569-1.705c1.647-.819 2.792-2.502 2.792-4.463v-2.697l.202-.303h4.798c.552 0 1 .449 1 1zm-8-3v2h-4v-2zm-6 2h-4v-2h4zm-4 2h4c.366 0 .705-.106 1-.278.295.172.634.278 1 .278h4v1c0 1.654-1.346 3-3 3h-4c-1.654 0-3-1.346-3-3zm2.73 5.973c.091.005.177.027.27.027h4c.093 0 .179-.022.27-.027l.495 1.484c-1.756.692-3.773.692-5.529 0zm-2.554-15.977.533-.178.186-.37c.446-.893 1.343-1.448 2.341-1.448h3.623c2.835 0 5.141 2.306 5.141 5.141 0 .61-.12 1.205-.327 1.769-.249-.381-.627-.665-1.069-.806l-1.772-2.658-1.664 1.109.964 1.445h-1.596l-1.703-2.555-1.664 1.109.963 1.446h-4.132c-.613 0-1.155.283-1.523.719l-.141-.283c-.22-.44-.336-.932-.336-1.423 0-1.371.874-2.583 2.176-3.017zm-8.176 9.004c0-.551.448-1 1-1h4.882l.118.236v2.764c0 1.961 1.145 3.644 2.792 4.463l-.57 1.71c-3.294.938-6.116 2.823-8.222 5.306zm-2 24.369c0-6.71 4.475-12.537 10.918-14.303 1.27.607 2.675.934 4.082.934 1.409 0 2.817-.328 4.088-.937 8.215 2.162 15.09 7.972 18.605 15.686-.467.334-.867.762-1.158 1.273-.82.078-1.598.367-2.274.817-2.073-3.635-4.903-6.833-8.262-9.333v-1.506h-2v19.026c-.837-.635-1.869-1.026-2.999-1.026h-2c-1.641 0-3.088.806-4 2.031-.912-1.225-2.359-2.031-4-2.031h-2c-1.13 0-2.162.391-3 1.026v-5.026h4.184c.414 1.161 1.514 2 2.816 2h4c1.654 0 3-1.346 3-3v-9h2v-2h-6v-4h4v-2h-4c-1.103 0-2 .897-2 2v4h-6v2h2v2h-4v-2h-2v2h-2v2h6v4h-4c-2.206 0-4-1.794-4-4zm12-3.369h6v9c0 .551-.448 1-1 1h-4c-.118 0-.228-.03-.333-.067 1.888-.32 3.333-1.956 3.333-3.933 0-2.206-1.794-4-4-4zm0 4c1.103 0 2 .897 2 2s-.897 2-2 2h-2v-4zm-8 14h-3c-.552 0-1-.449-1-1v-6c0-.551.448-1 1-1h3zm-4 7v-4c0-.551.448-1 1-1h3v6h-3c-.552 0-1-.449-1-1zm26 1v-6h4v5c0 .551-.448 1-1 1z" data-original="#000000" class="active-path" data-old_color="#000000" fill="#3A4750"/></g> </svg>
