<?xml version="1.0"?>
<svg xmlns="http://www.w3.org/2000/svg" xmlns:xlink="http://www.w3.org/1999/xlink" version="1.1" id="Capa_1" x="0px" y="0px" viewBox="0 0 512.002 512.002" style="enable-background:new 0 0 512.002 512.002;" xml:space="preserve" width="512px" height="512px" class=""><g><g>
	<g>
		<path d="M256.001,0C114.842,0,0,114.842,0,256.001s114.842,256.001,256.001,256.001S512.002,397.16,512.002,256.001    S397.16,0,256.001,0z M256.001,492.002C125.87,492.002,20,386.133,20,256.001S125.87,20,256.001,20    s236.001,105.87,236.001,236.001S386.132,492.002,256.001,492.002z" data-original="#000000" class="active-path" data-old_color="#000000" fill="#FFFFFF"/>
	</g>
</g><g>
	<g>
		<path d="M256.001,35C134.141,35,35,134.141,35,256.001s99.141,221,221.001,221s221.001-99.141,221.001-221    C477.002,134.141,377.861,35,256.001,35z M256.001,457.002c-110.832,0-201.001-90.168-201.001-201    C55,145.169,145.169,55,256.001,55s201.001,90.168,201.001,201.001C457.002,366.833,366.833,457.002,256.001,457.002z" data-original="#000000" class="active-path" data-old_color="#000000" fill="#FFFFFF"/>
	</g>
</g><g>
	<g>
		<path d="M108.58,159.341c-4.785-2.762-10.898-1.122-13.66,3.66c-10.87,18.826-18.3,39.227-22.082,60.635    c-0.961,5.438,2.669,10.626,8.107,11.587c0.589,0.104,1.174,0.154,1.752,0.154c4.76,0,8.978-3.412,9.836-8.262    c3.376-19.106,10.006-37.313,19.707-54.115C115.002,168.218,113.363,162.102,108.58,159.341z" data-original="#000000" class="active-path" data-old_color="#000000" fill="#FFFFFF"/>
	</g>
</g><g>
	<g>
		<path d="M441.3,239.858c-0.479-5.503-5.344-9.571-10.83-9.095c-5.502,0.479-9.573,5.328-9.094,10.83    c2.97,34.09-4.505,67.773-21.614,97.408c-2.762,4.783-1.123,10.899,3.66,13.66c1.575,0.91,3.294,1.342,4.99,1.342    c3.456,0,6.818-1.794,8.67-5.002C436.253,315.796,444.628,278.054,441.3,239.858z" data-original="#000000" class="active-path" data-old_color="#000000" fill="#FFFFFF"/>
	</g>
</g><g>
	<g>
		<path d="M80.001,245.393c-5.522,0-10,4.477-10,10L70,256.001c0,5.523,4.478,10,10,10c5.522,0,10-4.477,10-10l0.001-0.608    C90.001,249.87,85.523,245.393,80.001,245.393z" data-original="#000000" class="active-path" data-old_color="#000000" fill="#FFFFFF"/>
	</g>
</g><g>
	<g>
		<path d="M435.831,208.487l-0.169-0.633c-1.433-5.334-6.913-8.497-12.252-7.063c-5.334,1.433-8.496,6.918-7.063,12.252l0.144,0.543    c1.184,4.486,5.232,7.453,9.663,7.453c0.844,0,1.702-0.107,2.557-0.333C434.051,219.298,437.239,213.827,435.831,208.487z" data-original="#000000" class="active-path" data-old_color="#000000" fill="#FFFFFF"/>
	</g>
</g><g>
	<g>
		<path d="M343.798,223.037l-56.96-32.885c-0.598-0.388-1.153-0.73-1.688-1.037l-56.815-32.804c-6.244-4.129-13.508-6.31-21.03-6.31    c-21.056,0-38.187,17.131-38.187,38.187v135.687c0,0.428,0.027,0.85,0.08,1.264c0.207,6.253,1.966,12.396,5.119,17.84    c6.794,11.733,19.444,19.022,33.015,19.022c6.678,0,13.274-1.777,19.066-5.131l58.752-33.922c0.308-0.178,0.603-0.37,0.884-0.574    l57.355-33.112c5.999-3.347,10.986-8.276,14.429-14.263C368.276,256.799,361.979,233.484,343.798,223.037z M340.479,265.031    c-1.642,2.857-4.018,5.203-6.872,6.786c-0.049,0.028-0.099,0.056-0.148,0.085l-58.335,33.678c-0.308,0.178-0.603,0.37-0.884,0.575    l-57.854,33.403c-2.761,1.599-5.893,2.444-9.055,2.444c-6.458,0-12.478-3.465-15.708-9.044c-1.603-2.768-2.448-5.906-2.446-9.076    c0-0.363-0.02-0.725-0.06-1.083v-134.61c0-10.028,8.158-18.187,18.187-18.187c3.645,0,7.154,1.069,10.149,3.093    c0.194,0.132,0.394,0.256,0.598,0.374l57.108,32.973c0.321,0.185,0.63,0.381,0.937,0.583c0.164,0.108,0.331,0.211,0.501,0.309    l57.218,33.034c4.184,2.404,7.182,6.294,8.439,10.953C343.514,255.979,342.883,260.849,340.479,265.031z" data-original="#000000" class="active-path" data-old_color="#000000" fill="#FFFFFF"/>
	</g>
</g></g> </svg>
